<svg xmlns="http://www.w3.org/2000/svg" xmlns:xlink="http://www.w3.org/1999/xlink" width="100" height="60" version="1.1" viewBox="0 0 100 60"><title>Payone-light</title><desc>Created with Sketch.</desc><g id="Light-Payment-badges" fill="none" fill-rule="evenodd" stroke="none" stroke-width="1" transform="translate(-131.000000, -1289.000000)"><g id="Payone-light" transform="translate(131.000000, 1289.000000)"><rect id="Rectangle" width="100" height="60" x="0" y="0" fill="#FFF" rx="4"/><path id="Fill-1" fill="#00324F" d="M13.8953116,33.5803125 C13.8953116,33.9310875 14.1982196,34.2179625 14.5683086,34.2179625 L17.3345994,34.2179625 C17.7046884,34.2179625 18.0073591,33.9310875 18.0073591,33.5803125 L18.0073591,30.9581625 C18.0073591,30.6073875 17.7046884,30.3202875 17.3345994,30.3202875 L14.5683086,30.3202875 C14.1982196,30.3202875 13.8953116,30.6073875 13.8953116,30.9581625 L13.8953116,33.5803125"/><path id="Fill-2" fill="#00324F" d="M9.10979228,33.5911125 C9.10979228,33.9421125 9.41246291,34.2289875 9.78255193,34.2289875 L12.5486053,34.2289875 C12.9186944,34.2289875 13.221365,33.9421125 13.221365,33.5911125 L13.221365,30.9691875 C13.221365,30.6184125 12.9186944,30.3313125 12.5486053,30.3313125 L9.78255193,30.3313125 C9.41246291,30.3313125 9.10979228,30.6184125 9.10979228,30.9691875 L9.10979228,33.5911125"/><path id="Fill-3" fill="#2CADD8" d="M13.8953116,29.0440875 C13.8953116,29.3950875 14.1982196,29.6819625 14.5683086,29.6819625 L17.3345994,29.6819625 C17.7046884,29.6819625 18.0073591,29.3950875 18.0073591,29.0440875 L18.0073591,26.4221625 C18.0073591,26.0713875 17.7046884,25.7845125 17.3345994,25.7845125 L14.5683086,25.7845125 C14.1982196,25.7845125 13.8953116,26.0713875 13.8953116,26.4221625 L13.8953116,29.0440875"/><path id="Fill-4" fill="#00324F" d="M9.10979228,29.0440875 C9.10979228,29.3950875 9.41246291,29.6819625 9.78255193,29.6819625 L12.5486053,29.6819625 C12.9186944,29.6819625 13.221365,29.3950875 13.221365,29.0440875 L13.221365,26.4221625 C13.221365,26.0713875 12.9186944,25.7845125 12.5486053,25.7845125 L9.78255193,25.7845125 C9.41246291,25.7845125 9.10979228,26.0713875 9.10979228,26.4221625 L9.10979228,29.0440875"/><path id="Fill-6" fill="#00324F" d="M24.5550148,27.1711875 L26.9236795,27.1711875 C28.6397626,27.1711875 28.7814837,27.6450375 28.7814837,28.1724375 C28.7814837,28.7493375 28.571632,29.3392875 27.0164985,29.3392875 L24.5550148,29.3392875 L24.5550148,27.1711875 L24.5550148,27.1711875 Z M26.9469436,25.7833875 L22.8346588,25.7833875 L22.8346588,34.2168375 L24.5550148,34.2168375 L24.5550148,30.7273125 L27.3186944,30.7273125 C29.385638,30.7273125 30.5713947,29.7958125 30.5713947,28.1724375 C30.5713947,26.4979875 29.4872404,25.7833875 26.9469436,25.7833875 L26.9469436,25.7833875 Z"/><path id="Fill-7" fill="#00324F" d="M38.6710979,30.7592625 L35.304451,30.7592625 L36.9922849,27.5406375 L38.6710979,30.7592625 L38.6710979,30.7592625 Z M36.1279525,25.7833875 L31.5565579,34.2168375 L33.4820178,34.2168375 L34.5618991,32.1472875 L39.3896736,32.1472875 L40.4695549,34.2168375 L42.4306231,34.2168375 L37.8578042,25.7833875 L36.1279525,25.7833875 L36.1279525,25.7833875 Z"/><polyline id="Fill-8" fill="#00324F" points="51.172 25.783 48.266 29.319 45.359 25.783 43.139 25.783 47.405 30.747 47.405 34.217 49.125 34.217 49.125 30.747 53.393 25.783 51.172 25.783"/><path id="Fill-9" fill="#2CADD8" d="M59.9470623,33.0380625 C58.0439169,33.0380625 56.7653412,31.8172125 56.7653412,30.0001125 C56.7653412,28.1827875 58.0439169,26.9619375 59.9470623,26.9619375 C61.8506825,26.9619375 63.1292582,28.1827875 63.1292582,30.0001125 C63.1292582,31.8172125 61.8506825,33.0380625 59.9470623,33.0380625 L59.9470623,33.0380625 Z M59.9470623,25.5739125 C56.2779822,25.5739125 54.975905,27.9582375 54.975905,30.0001125 C54.975905,32.0417625 56.2779822,34.4260875 59.9470623,34.4260875 C63.6168546,34.4260875 64.9196439,32.0417625 64.9196439,30.0001125 C64.9196439,27.9582375 63.6168546,25.5739125 59.9470623,25.5739125 L59.9470623,25.5739125 Z"/><polyline id="Fill-10" fill="#2CADD8" points="75.831 32.084 71.061 25.783 69.024 25.783 69.024 34.217 70.745 34.217 70.745 27.916 75.515 34.217 77.551 34.217 77.551 25.783 75.831 25.783 75.831 32.084"/><polyline id="Fill-11" fill="#2CADD8" points="88.89 27.171 88.89 25.783 82.028 25.783 82.028 34.217 88.88 34.217 88.88 32.829 83.749 32.829 83.749 30.584 88.488 30.584 88.488 29.196 83.749 29.196 83.749 27.171 88.89 27.171"/></g></g></svg>