<svg xmlns="http://www.w3.org/2000/svg" xmlns:xlink="http://www.w3.org/1999/xlink" width="100" height="60" version="1.1" viewBox="0 0 100 60"><title>Payone-dark</title><desc>Created with Sketch.</desc><g id="Dark-Payment-badges" fill="none" fill-rule="evenodd" stroke="none" stroke-width="1" transform="translate(-130.000000, -1289.000000)"><g id="Payone-dark" transform="translate(130.000000, 1289.000000)"><rect id="Rectangle" width="100" height="60" x="0" y="0" fill="#00324F" rx="4"/><path id="Fill-1" fill="#FFF" d="M14.8953116,33.5803125 C14.8953116,33.9310875 15.1982196,34.2179625 15.5683086,34.2179625 L18.3345994,34.2179625 C18.7046884,34.2179625 19.0073591,33.9310875 19.0073591,33.5803125 L19.0073591,30.9581625 C19.0073591,30.6073875 18.7046884,30.3202875 18.3345994,30.3202875 L15.5683086,30.3202875 C15.1982196,30.3202875 14.8953116,30.6073875 14.8953116,30.9581625 L14.8953116,33.5803125"/><path id="Fill-2" fill="#FFF" d="M10.1097923,33.5911125 C10.1097923,33.9421125 10.4124629,34.2289875 10.7825519,34.2289875 L13.5486053,34.2289875 C13.9186944,34.2289875 14.221365,33.9421125 14.221365,33.5911125 L14.221365,30.9691875 C14.221365,30.6184125 13.9186944,30.3313125 13.5486053,30.3313125 L10.7825519,30.3313125 C10.4124629,30.3313125 10.1097923,30.6184125 10.1097923,30.9691875 L10.1097923,33.5911125"/><path id="Fill-3" fill="#2CADD8" d="M14.8953116,29.0440875 C14.8953116,29.3950875 15.1982196,29.6819625 15.5683086,29.6819625 L18.3345994,29.6819625 C18.7046884,29.6819625 19.0073591,29.3950875 19.0073591,29.0440875 L19.0073591,26.4221625 C19.0073591,26.0713875 18.7046884,25.7845125 18.3345994,25.7845125 L15.5683086,25.7845125 C15.1982196,25.7845125 14.8953116,26.0713875 14.8953116,26.4221625 L14.8953116,29.0440875"/><path id="Fill-4" fill="#FFF" d="M10.1097923,29.0440875 C10.1097923,29.3950875 10.4124629,29.6819625 10.7825519,29.6819625 L13.5486053,29.6819625 C13.9186944,29.6819625 14.221365,29.3950875 14.221365,29.0440875 L14.221365,26.4221625 C14.221365,26.0713875 13.9186944,25.7845125 13.5486053,25.7845125 L10.7825519,25.7845125 C10.4124629,25.7845125 10.1097923,26.0713875 10.1097923,26.4221625 L10.1097923,29.0440875"/><path id="Fill-6" fill="#FFF" d="M25.5550148,27.1711875 L27.9236795,27.1711875 C29.6397626,27.1711875 29.7814837,27.6450375 29.7814837,28.1724375 C29.7814837,28.7493375 29.571632,29.3392875 28.0164985,29.3392875 L25.5550148,29.3392875 L25.5550148,27.1711875 L25.5550148,27.1711875 Z M27.9469436,25.7833875 L23.8346588,25.7833875 L23.8346588,34.2168375 L25.5550148,34.2168375 L25.5550148,30.7273125 L28.3186944,30.7273125 C30.385638,30.7273125 31.5713947,29.7958125 31.5713947,28.1724375 C31.5713947,26.4979875 30.4872404,25.7833875 27.9469436,25.7833875 L27.9469436,25.7833875 Z"/><path id="Fill-7" fill="#FFF" d="M39.6710979,30.7592625 L36.304451,30.7592625 L37.9922849,27.5406375 L39.6710979,30.7592625 L39.6710979,30.7592625 Z M37.1279525,25.7833875 L32.5565579,34.2168375 L34.4820178,34.2168375 L35.5618991,32.1472875 L40.3896736,32.1472875 L41.4695549,34.2168375 L43.4306231,34.2168375 L38.8578042,25.7833875 L37.1279525,25.7833875 L37.1279525,25.7833875 Z"/><polyline id="Fill-8" fill="#FFF" points="52.172 25.783 49.266 29.319 46.359 25.783 44.139 25.783 48.405 30.747 48.405 34.217 50.125 34.217 50.125 30.747 54.393 25.783 52.172 25.783"/><path id="Fill-9" fill="#2CADD8" d="M60.9470623,33.0380625 C59.0439169,33.0380625 57.7653412,31.8172125 57.7653412,30.0001125 C57.7653412,28.1827875 59.0439169,26.9619375 60.9470623,26.9619375 C62.8506825,26.9619375 64.1292582,28.1827875 64.1292582,30.0001125 C64.1292582,31.8172125 62.8506825,33.0380625 60.9470623,33.0380625 L60.9470623,33.0380625 Z M60.9470623,25.5739125 C57.2779822,25.5739125 55.975905,27.9582375 55.975905,30.0001125 C55.975905,32.0417625 57.2779822,34.4260875 60.9470623,34.4260875 C64.6168546,34.4260875 65.9196439,32.0417625 65.9196439,30.0001125 C65.9196439,27.9582375 64.6168546,25.5739125 60.9470623,25.5739125 L60.9470623,25.5739125 Z"/><polyline id="Fill-10" fill="#2CADD8" points="76.831 32.084 72.061 25.783 70.024 25.783 70.024 34.217 71.745 34.217 71.745 27.916 76.515 34.217 78.551 34.217 78.551 25.783 76.831 25.783 76.831 32.084"/><polyline id="Fill-11" fill="#2CADD8" points="89.89 27.171 89.89 25.783 83.028 25.783 83.028 34.217 89.88 34.217 89.88 32.829 84.749 32.829 84.749 30.584 89.488 30.584 89.488 29.196 84.749 29.196 84.749 27.171 89.89 27.171"/></g></g></svg>