<svg xmlns="http://www.w3.org/2000/svg" xmlns:xlink="http://www.w3.org/1999/xlink" width="100" height="60" version="1.1" viewBox="0 0 100 60"><title>Switch-light</title><desc>Created with Sketch.</desc><g id="Light-Payment-badges" fill="none" fill-rule="evenodd" stroke="none" stroke-width="1" transform="translate(-610.000000, -689.000000)"><g id="Switch-light" transform="translate(610.000000, 689.000000)"><rect id="Rectangle" width="100" height="60" x="0" y="0" fill="#FFF" rx="4"/><path id="Fill-3" fill="#129566" d="M33.4759581,26.0394972 C33.4759581,17.160792 40.8068192,9.9618663 49.8512207,9.9618663 C58.8947019,9.9618663 66.2264832,17.160792 66.2264832,26.0394972 C66.2264832,34.9200096 58.8947019,42.1171282 49.8512207,42.1171282 C40.8068192,42.1171282 33.4759581,34.9200096 33.4759581,26.0394972 L33.4759581,26.0394972 Z M49.8512207,40.9930584 C58.261557,40.9930584 65.0789081,34.297434 65.0789081,26.0394972 C65.0789081,17.7815605 58.261557,11.0877432 49.8512207,11.0877432 C41.4399641,11.0877432 34.622613,17.7815605 34.622613,26.0394972 C34.622613,34.297434 41.4399641,40.9930584 49.8512207,40.9930584 L49.8512207,40.9930584 Z"/><path id="Fill-1" fill="#129566" d="M54.3660593,22.6599458 C56.9667388,26.5276947 55.837569,31.7058042 51.8472836,34.2230522 C47.8569982,36.7420842 42.5157583,35.6502658 39.9169193,31.7825169 L42.3933625,30.1688735 C44.0820557,32.6798775 47.5505487,33.3908082 50.1420256,31.7548646 C52.7325822,30.118921 53.4660364,26.7560489 51.7782635,24.245937 L54.3660593,22.6599458"/><path id="Fill-2" fill="#000" d="M60.1333837,19.111536 C57.529023,15.2455711 52.1850223,14.1599967 48.1993382,16.6825968 C44.2118136,19.2069809 43.0909263,24.3868743 45.6952869,28.2510552 L48.2159031,26.7025284 C46.5262896,24.1933085 47.2542222,20.8313284 49.8429382,19.1918167 C52.4316543,17.5523051 55.9001473,18.2596678 57.5934419,20.7679958 L60.1333837,19.111536"/><polyline id="h-2" fill="#129566" points="59.069 45.472 59.881 45.472 59.542 47.431 61.747 47.431 62.086 45.472 62.898 45.472 62.083 50.184 61.271 50.184 61.614 48.198 59.409 48.198 59.066 50.184 58.254 50.184 59.069 45.472"/><path id="c-3" fill="#129566" d="M53.5594151,47.922423 L53.5617447,47.9090165 C53.7933781,46.5693174 54.9666879,45.472067 56.3663062,45.472067 C57.2179584,45.472067 57.6803932,45.7749391 58.0483109,46.2058332 L57.420804,46.818375 C57.1116267,46.4682971 56.7563556,46.2328349 56.2281915,46.2328349 C55.3500812,46.2328349 54.5751409,46.9732098 54.4157265,47.8956101 L54.4133969,47.9090165 C54.2539825,48.831228 54.7651735,49.5785894 55.6497735,49.5785894 C56.2175416,49.5785894 56.6202377,49.3495471 57.0815077,48.9726564 L57.5098298,49.5111796 C56.9395656,50.0227011 56.35549,50.345966 55.490692,50.345966 C54.1439899,50.345966 53.325452,49.2755285 53.5594151,47.922423"/><polyline id="t-3" fill="#129566" points="51.434 46.239 49.969 46.239 50.102 45.472 53.851 45.472 53.719 46.239 52.253 46.239 51.571 50.184 50.752 50.184 51.434 46.239"/><polyline id="i-2" fill="#129566" points="48.416 45.472 49.228 45.472 48.413 50.184 47.601 50.184 48.416 45.472"/><polyline id="w-2" fill="#129566" points="40.5 45.485 41.378 45.485 41.876 48.979 43.618 45.472 44.304 45.472 44.834 48.979 46.54 45.485 47.392 45.485 44.967 50.231 44.261 50.231 43.711 46.845 41.99 50.231 41.29 50.231 40.5 45.485"/><path id="s-3" fill="#129566" d="M35.7650104,49.565183 L36.3559086,48.9726564 C36.7306488,49.3631424 37.1411658,49.585387 37.7089339,49.585387 C38.2106399,49.585387 38.5694055,49.3429383 38.6298099,48.9928605 L38.6323059,48.9794541 C38.6903807,48.6427827 38.5371232,48.4609461 37.7137596,48.2590944 C36.7719169,48.0166456 36.2687132,47.7205712 36.418809,46.8521743 L36.4211387,46.8387678 C36.5607511,46.0307943 37.3175533,45.472067 38.2351012,45.472067 C38.9085354,45.472067 39.4070798,45.6807164 39.8096094,46.0645936 L39.265637,46.6905418 C38.9043754,46.3742633 38.5176541,46.2058332 38.095156,46.2058332 C37.6197418,46.2058332 37.2994154,46.4548907 37.2459999,46.7647492 L37.2436703,46.7779668 C37.1807698,47.1416399 37.3641463,47.3032724 38.2179617,47.5185306 C39.1531483,47.7609793 39.5932851,48.1176659 39.458332,48.8986378 L39.4558359,48.9120443 C39.3034105,49.7940364 38.5327968,50.3189643 37.5623326,50.3189643 C36.8559505,50.3189643 36.2322709,50.0699068 35.7650104,49.565183"/></g></g></svg>