<svg xmlns="http://www.w3.org/2000/svg" xmlns:xlink="http://www.w3.org/1999/xlink" width="100" height="60" version="1.1" viewBox="0 0 100 60"><title>WebMoney-dark</title><desc>Created with Sketch.</desc><g id="Dark-Payment-badges" fill="none" fill-rule="evenodd" stroke="none" stroke-width="1" transform="translate(-450.000000, -989.000000)"><g id="WebMoney-dark" transform="translate(450.000000, 989.000000)"><rect id="Rectangle" width="100" height="60" x="0" y="0" fill="#0068A3" rx="4"/><path id="Fill-1" fill="#FFF" d="M79.8755668,20.0887 C81.4435264,20.0887 82.9284635,20.4511 84.2509824,21.0945 C84.4587406,21.1923 84.6658942,21.2999 84.8736524,21.4187 L83.9543577,22.2353 L82.573199,20.8179 L80.2421159,22.8815 L78.8575315,21.3817 L74.5151637,25.2665 L77.2990428,28.3115 L76.2050378,29.2665 L78.9470025,32.3161 L77.8594458,33.2689 L81.7776322,37.5975 L84.1034761,35.4723 L86.1143577,37.7497 C85.7143577,38.0583 85.2786902,38.3487 84.7986902,38.6171 C83.3445844,39.4401 81.6639798,39.9113 79.8755668,39.9113 C74.3755164,39.9113 69.8896725,35.4585 69.8896725,30.0003 C69.8896725,24.5409 74.3755164,20.0887 79.8755668,20.0887"/><polyline id="Fill-2" fill="#FFF" points="78.056 29.374 80.43 27.251 82.569 29.609 80.194 31.73 78.056 29.374"/><polyline id="Fill-3" fill="#FFF" points="79.744 33.446 82.119 31.324 84.257 33.681 81.883 35.803 79.744 33.446"/><polyline id="Fill-4" fill="#FFF" points="76.357 25.349 78.731 23.227 80.869 25.584 78.494 27.706 76.357 25.349"/><polyline id="Fill-5" fill="#FFF" points="80.714 24.207 82.495 22.616 84.098 24.383 82.317 25.975 80.714 24.207"/><polyline id="Fill-6" fill="#FFF" points="83.878 31.497 85.66 29.905 87.263 31.673 85.482 33.264 83.878 31.497"/><polyline id="Fill-7" fill="#FFF" points="85.445 35.067 87.226 33.475 88.83 35.242 87.049 36.834 85.445 35.067"/><polyline id="Fill-8" fill="#FFF" points="86.163 26.884 87.35 25.823 88.419 27.001 87.232 28.062 86.163 26.884"/><polyline id="Fill-9" fill="#FFF" points="84.646 23.383 85.833 22.322 86.902 23.5 85.714 24.561 84.646 23.383"/><polyline id="Fill-10" fill="#FFF" points="87.681 30.385 88.868 29.324 89.937 30.502 88.75 31.563 87.681 30.385"/><polyline id="Fill-11" fill="#FFF" points="82.356 27.762 84.137 26.169 85.74 27.937 83.96 29.529 82.356 27.762"/><polyline id="Fill-12" fill="#FFF" points="14.723 28.291 14.644 28.291 13.139 33.935 11.909 33.935 10.063 25.917 11.339 25.917 12.615 31.899 12.695 31.899 14.176 25.917 15.19 25.917 16.774 31.899 16.854 31.899 18.016 25.917 19.349 25.917 17.503 33.935 16.273 33.935 14.723 28.291"/><path id="Fill-13" fill="#FFF" d="M24.3978841,32.6905 L24.3978841,33.5499 C23.8852393,33.8443 23.2017128,34.0705 22.3811587,34.0705 C20.467204,34.0705 19.6811083,32.8943 19.6811083,31.1073 C19.6811083,29.3887 20.5584887,28.1447 22.2675063,28.1447 C23.6913854,28.1447 24.5687657,29.0609 24.5687657,30.9039 L24.5687657,31.3221 L20.8547103,31.3221 C20.8547103,32.6789 21.4128967,33.2785 22.5864987,33.2785 C23.2017128,33.2785 23.7711839,33.0637 24.3978841,32.6905 L24.3978841,32.6905 Z M20.8776826,30.5647 L23.4862469,30.5647 C23.4298237,29.3771 22.8484635,28.9025 22.2332494,28.9025 C21.5378338,28.9025 21.0026196,29.4341 20.8776826,30.5647 L20.8776826,30.5647 Z"/><path id="Fill-14" fill="#FFF" d="M26.7902267,28.5633 C27.1319899,28.3823 27.7129471,28.1447 28.3283627,28.1447 C29.7409572,28.1447 30.5044836,29.1173 30.5044836,30.9271 C30.5044836,33.0413 29.4793955,34.0705 27.827204,34.0705 C27.223073,34.0705 26.2888665,33.8783 25.6051385,33.5159 L25.6051385,25.6231 L26.7902267,25.3403 L26.7902267,28.5633 L26.7902267,28.5633 Z M26.7789421,33.0977 C27.1432746,33.2561 27.542267,33.2785 27.827204,33.2785 C28.6703275,33.2785 29.3083123,32.7585 29.3083123,30.9271 C29.3083123,29.4905 28.7841814,29.0269 28.0208564,29.0269 C27.5648363,29.0269 27.2347607,29.1513 26.7789421,29.4001 L26.7789421,33.0977 L26.7789421,33.0977 Z"/><polyline id="Fill-15" fill="#FFF" points="35.689 32.238 35.746 32.238 38.184 25.917 39.597 25.917 39.597 33.935 38.366 33.935 38.366 28.122 38.264 28.122 35.939 33.935 35.21 33.935 32.886 28.258 32.783 28.258 32.783 33.935 31.758 33.935 31.758 25.917 33.136 25.917 35.689 32.238"/><path id="Fill-16" fill="#FFF" d="M40.8500756,31.1073 C40.8500756,29.1283 41.9438791,28.1447 43.4477582,28.1447 C44.9518388,28.1447 46.0458438,29.1283 46.0458438,31.1073 C46.0458438,33.0413 45.0088665,34.0705 43.4477582,34.0705 C41.8866499,34.0705 40.8500756,33.0413 40.8500756,31.1073 L40.8500756,31.1073 Z M44.8492695,31.1073 C44.8492695,29.5809 44.2223678,28.9365 43.4477582,28.9365 C42.6957179,28.9365 42.0462469,29.5809 42.0462469,31.1073 C42.0462469,32.6571 42.6390932,33.2785 43.4477582,33.2785 C44.2566247,33.2785 44.8492695,32.6571 44.8492695,31.1073 L44.8492695,31.1073 Z"/><path id="Fill-17" fill="#FFF" d="M47.1279597,28.9815 C47.6406045,28.6761 48.7233249,28.1447 50.0329471,28.1447 C51.400806,28.1447 51.9130479,28.6761 51.9130479,29.8407 L51.9130479,33.9347 L50.7281612,33.9347 L50.7281612,30.1011 C50.7281612,29.2077 50.2842317,29.0493 49.7032746,29.0493 C49.2472544,29.0493 48.6660957,29.2533 48.3130479,29.4565 L48.3130479,33.9347 L47.1279597,33.9347 L47.1279597,28.9815"/><path id="Fill-18" fill="#FFF" d="M57.6893703,32.6905 L57.6893703,33.5499 C57.176927,33.8443 56.493602,34.0705 55.6728463,34.0705 C53.7590932,34.0705 52.972796,32.8943 52.972796,31.1073 C52.972796,29.3887 53.8503778,28.1447 55.559194,28.1447 C56.9836776,28.1447 57.8612594,29.0609 57.8612594,30.9039 L57.8612594,31.3221 L54.146801,31.3221 C54.146801,32.6789 54.7049874,33.2785 55.8783879,33.2785 C56.493602,33.2785 57.0632746,33.0637 57.6893703,32.6905 L57.6893703,32.6905 Z M54.1693703,30.5647 L56.7783375,30.5647 C56.7217128,29.3771 56.1401511,28.9025 55.524937,28.9025 C54.8297229,28.9025 54.2949118,29.4341 54.1693703,30.5647 L54.1693703,30.5647 Z"/><path id="Fill-19" fill="#FFF" d="M62.2930982,28.3369 L63.5122418,28.3369 L61.4497733,33.9911 C60.8798992,35.5519 60.1846851,36.3657 58.875063,36.3657 L58.875063,35.4389 C59.6498741,35.4389 60.1278589,34.8277 60.4017128,33.9911 L58.2141058,28.3369 L59.4675063,28.3369 L60.9258438,32.4981 L60.9937531,32.4981 L62.2930982,28.3369"/></g></g></svg>