<svg xmlns="http://www.w3.org/2000/svg" xmlns:xlink="http://www.w3.org/1999/xlink" width="100" height="60" version="1.1" viewBox="0 0 100 60"><title>WebMoney-light</title><desc>Created with Sketch.</desc><g id="Light-Payment-badges" fill="none" fill-rule="evenodd" stroke="none" stroke-width="1" transform="translate(-451.000000, -989.000000)"><g id="WebMoney-light" transform="translate(451.000000, 989.000000)"><rect id="Rectangle" width="100" height="60" x="0" y="0" fill="#FFF" rx="4"/><path id="Fill-1" fill="#0068A3" d="M78.8755668,20.0887 C80.4435264,20.0887 81.9284635,20.4511 83.2509824,21.0945 C83.4587406,21.1923 83.6658942,21.2999 83.8736524,21.4187 L82.9543577,22.2353 L81.573199,20.8179 L79.2421159,22.8815 L77.8575315,21.3817 L73.5151637,25.2665 L76.2990428,28.3115 L75.2050378,29.2665 L77.9470025,32.3161 L76.8594458,33.2689 L80.7776322,37.5975 L83.1034761,35.4723 L85.1143577,37.7497 C84.7143577,38.0583 84.2786902,38.3487 83.7986902,38.6171 C82.3445844,39.4401 80.6639798,39.9113 78.8755668,39.9113 C73.3755164,39.9113 68.8896725,35.4585 68.8896725,30.0003 C68.8896725,24.5409 73.3755164,20.0887 78.8755668,20.0887"/><polyline id="Fill-2" fill="#0068A3" points="77.056 29.374 79.43 27.251 81.569 29.609 79.194 31.73 77.056 29.374"/><polyline id="Fill-3" fill="#0068A3" points="78.744 33.446 81.119 31.324 83.257 33.681 80.883 35.803 78.744 33.446"/><polyline id="Fill-4" fill="#0068A3" points="75.357 25.349 77.731 23.227 79.869 25.584 77.494 27.706 75.357 25.349"/><polyline id="Fill-5" fill="#0068A3" points="79.714 24.207 81.495 22.616 83.098 24.383 81.317 25.975 79.714 24.207"/><polyline id="Fill-6" fill="#0068A3" points="82.878 31.497 84.66 29.905 86.263 31.673 84.482 33.264 82.878 31.497"/><polyline id="Fill-7" fill="#0068A3" points="84.445 35.067 86.226 33.475 87.83 35.242 86.049 36.834 84.445 35.067"/><polyline id="Fill-8" fill="#0068A3" points="85.163 26.884 86.35 25.823 87.419 27.001 86.232 28.062 85.163 26.884"/><polyline id="Fill-9" fill="#0068A3" points="83.646 23.383 84.833 22.322 85.902 23.5 84.714 24.561 83.646 23.383"/><polyline id="Fill-10" fill="#0068A3" points="86.681 30.385 87.868 29.324 88.937 30.502 87.75 31.563 86.681 30.385"/><polyline id="Fill-11" fill="#0068A3" points="81.356 27.762 83.137 26.169 84.74 27.937 82.96 29.529 81.356 27.762"/><polyline id="Fill-12" fill="#0068A3" points="13.723 28.291 13.644 28.291 12.139 33.935 10.909 33.935 9.063 25.917 10.339 25.917 11.615 31.899 11.695 31.899 13.176 25.917 14.19 25.917 15.774 31.899 15.854 31.899 17.016 25.917 18.349 25.917 16.503 33.935 15.273 33.935 13.723 28.291"/><path id="Fill-13" fill="#0068A3" d="M23.3978841,32.6905 L23.3978841,33.5499 C22.8852393,33.8443 22.2017128,34.0705 21.3811587,34.0705 C19.467204,34.0705 18.6811083,32.8943 18.6811083,31.1073 C18.6811083,29.3887 19.5584887,28.1447 21.2675063,28.1447 C22.6913854,28.1447 23.5687657,29.0609 23.5687657,30.9039 L23.5687657,31.3221 L19.8547103,31.3221 C19.8547103,32.6789 20.4128967,33.2785 21.5864987,33.2785 C22.2017128,33.2785 22.7711839,33.0637 23.3978841,32.6905 L23.3978841,32.6905 Z M19.8776826,30.5647 L22.4862469,30.5647 C22.4298237,29.3771 21.8484635,28.9025 21.2332494,28.9025 C20.5378338,28.9025 20.0026196,29.4341 19.8776826,30.5647 L19.8776826,30.5647 Z"/><path id="Fill-14" fill="#0068A3" d="M25.7902267,28.5633 C26.1319899,28.3823 26.7129471,28.1447 27.3283627,28.1447 C28.7409572,28.1447 29.5044836,29.1173 29.5044836,30.9271 C29.5044836,33.0413 28.4793955,34.0705 26.827204,34.0705 C26.223073,34.0705 25.2888665,33.8783 24.6051385,33.5159 L24.6051385,25.6231 L25.7902267,25.3403 L25.7902267,28.5633 L25.7902267,28.5633 Z M25.7789421,33.0977 C26.1432746,33.2561 26.542267,33.2785 26.827204,33.2785 C27.6703275,33.2785 28.3083123,32.7585 28.3083123,30.9271 C28.3083123,29.4905 27.7841814,29.0269 27.0208564,29.0269 C26.5648363,29.0269 26.2347607,29.1513 25.7789421,29.4001 L25.7789421,33.0977 L25.7789421,33.0977 Z"/><polyline id="Fill-15" fill="#0068A3" points="34.689 32.238 34.746 32.238 37.184 25.917 38.597 25.917 38.597 33.935 37.366 33.935 37.366 28.122 37.264 28.122 34.939 33.935 34.21 33.935 31.886 28.258 31.783 28.258 31.783 33.935 30.758 33.935 30.758 25.917 32.136 25.917 34.689 32.238"/><path id="Fill-16" fill="#0068A3" d="M39.8500756,31.1073 C39.8500756,29.1283 40.9438791,28.1447 42.4477582,28.1447 C43.9518388,28.1447 45.0458438,29.1283 45.0458438,31.1073 C45.0458438,33.0413 44.0088665,34.0705 42.4477582,34.0705 C40.8866499,34.0705 39.8500756,33.0413 39.8500756,31.1073 L39.8500756,31.1073 Z M43.8492695,31.1073 C43.8492695,29.5809 43.2223678,28.9365 42.4477582,28.9365 C41.6957179,28.9365 41.0462469,29.5809 41.0462469,31.1073 C41.0462469,32.6571 41.6390932,33.2785 42.4477582,33.2785 C43.2566247,33.2785 43.8492695,32.6571 43.8492695,31.1073 L43.8492695,31.1073 Z"/><path id="Fill-17" fill="#0068A3" d="M46.1279597,28.9815 C46.6406045,28.6761 47.7233249,28.1447 49.0329471,28.1447 C50.400806,28.1447 50.9130479,28.6761 50.9130479,29.8407 L50.9130479,33.9347 L49.7281612,33.9347 L49.7281612,30.1011 C49.7281612,29.2077 49.2842317,29.0493 48.7032746,29.0493 C48.2472544,29.0493 47.6660957,29.2533 47.3130479,29.4565 L47.3130479,33.9347 L46.1279597,33.9347 L46.1279597,28.9815"/><path id="Fill-18" fill="#0068A3" d="M56.6893703,32.6905 L56.6893703,33.5499 C56.176927,33.8443 55.493602,34.0705 54.6728463,34.0705 C52.7590932,34.0705 51.972796,32.8943 51.972796,31.1073 C51.972796,29.3887 52.8503778,28.1447 54.559194,28.1447 C55.9836776,28.1447 56.8612594,29.0609 56.8612594,30.9039 L56.8612594,31.3221 L53.146801,31.3221 C53.146801,32.6789 53.7049874,33.2785 54.8783879,33.2785 C55.493602,33.2785 56.0632746,33.0637 56.6893703,32.6905 L56.6893703,32.6905 Z M53.1693703,30.5647 L55.7783375,30.5647 C55.7217128,29.3771 55.1401511,28.9025 54.524937,28.9025 C53.8297229,28.9025 53.2949118,29.4341 53.1693703,30.5647 L53.1693703,30.5647 Z"/><path id="Fill-19" fill="#0068A3" d="M61.2930982,28.3369 L62.5122418,28.3369 L60.4497733,33.9911 C59.8798992,35.5519 59.1846851,36.3657 57.875063,36.3657 L57.875063,35.4389 C58.6498741,35.4389 59.1278589,34.8277 59.4017128,33.9911 L57.2141058,28.3369 L58.4675063,28.3369 L59.9258438,32.4981 L59.9937531,32.4981 L61.2930982,28.3369"/></g></g></svg>